<svg width="7" height="10" viewBox="0 0 7 10" fill="none" xmlns="http://www.w3.org/2000/svg">
<path d="M1.35156 9.06445H5.77051C6.37598 9.06445 6.67383 8.7666 6.67383 8.10742V4.69434C6.67383 4.10352 6.42969 3.80078 5.92676 3.75195V2.59473C5.92676 0.851562 4.77441 0.00683594 3.56348 0.00683594C2.34766 0.00683594 1.19531 0.851562 1.19531 2.59473V3.77148C0.731445 3.84473 0.448242 4.14258 0.448242 4.69434V8.10742C0.448242 8.7666 0.746094 9.06445 1.35156 9.06445ZM1.98633 2.50195C1.98633 1.36914 2.70898 0.763672 3.56348 0.763672C4.41309 0.763672 5.13574 1.36914 5.13574 2.50195V3.74219L1.98633 3.75195V2.50195Z" fill="#4E8B43"/>
</svg>
